<svg width="45" height="45" viewBox="0 0 45 45" fill="none" xmlns="http://www.w3.org/2000/svg">
<path fill-rule="evenodd" clip-rule="evenodd" d="M22.9136 8.3813e-05C10.549 -0.0292645 7.4368 7.6558 7.4474 12.197C7.47034 21.9891 13.7646 29.4864 23.063 41.7064C32.1469 29.3555 38.266 22.0084 38.266 12.2335C38.266 7.40817 35.2781 0.0294321 22.9136 8.3813e-05ZM22.7642 6.1837C27.0163 6.18328 30.4638 8.92821 30.4642 12.3146C30.4638 15.701 27.0163 18.4459 22.7642 18.4455C18.5127 18.4452 15.0663 15.7005 15.0659 12.3146C15.0663 8.92874 18.5127 6.18403 22.7642 6.1837Z" fill="#FF5C52"/>
<path d="M32.0501 35.4144C36.575 35.8705 40.2462 36.6493 42.454 37.6214C44.6617 38.5936 45.2732 39.7007 44.187 40.7589C43.1007 41.817 40.3821 42.7626 36.4824 43.4385C32.5828 44.1145 27.7367 44.4802 22.749 44.4749C17.7613 44.4696 12.9319 44.0936 9.06284 43.4094C5.19376 42.7252 2.51776 41.7739 1.47913 40.7135C0.440503 39.6531 1.10175 38.5474 3.35309 37.5799C5.60444 36.6125 9.3104 35.8415 13.8556 35.395" stroke="#FF5C52" stroke-width="0.428107" stroke-linecap="round"/>
</svg>
