<svg width="45" height="45" viewBox="0 0 45 45" fill="none" xmlns="http://www.w3.org/2000/svg">
<path d="M22.4999 44.0128C34.3844 44.0128 44.0186 34.3791 44.0186 22.4953C44.0186 10.6115 34.3844 0.977783 22.4999 0.977783C10.6155 0.977783 0.981293 10.6115 0.981293 22.4953C0.981293 34.3791 10.6155 44.0128 22.4999 44.0128Z" fill="#FF5C52"/>
<path d="M10.4212 12.9639C9.83162 12.9638 9.34827 13.4458 9.34833 14.0357V30.9457C9.3481 31.5357 9.83088 32.0198 10.4212 32.0197H34.579C35.1694 32.0198 35.6523 31.5358 35.652 30.9457V14.0357C35.652 13.4458 35.1686 12.9638 34.579 12.9639H10.4212ZM13.281 15.5327H31.7126L22.4979 23.5838L13.281 15.5327ZM33.5061 16.8149V28.7091L26.7674 22.7021L33.5061 16.8149ZM11.4942 16.8216L18.2609 22.7346L11.4942 28.7673V16.8216ZM25.1395 24.1242L31.5503 29.8402H13.516L19.8899 24.1577L21.7897 25.8181C22.1926 26.1698 22.7987 26.1698 23.2017 25.8181L25.1395 24.1242Z" fill="white"/>
</svg>
