<svg width="45" height="45" viewBox="0 0 45 45" fill="none" xmlns="http://www.w3.org/2000/svg">
<path fill-rule="evenodd" clip-rule="evenodd" d="M18.6745 17.3724C14.4691 19.8003 20.8856 31.8294 25.4874 29.1726C26.3046 30.588 28.9369 35.1472 29.7541 36.5626C27.8125 37.6836 26.169 38.3902 23.9181 37.1035C17.6681 33.5307 10.7883 21.6196 10.9844 14.5146C11.0524 12.047 12.5063 11.0801 14.408 9.98218C15.2252 11.3976 17.8575 15.9568 18.6747 17.3722L18.6745 17.3724Z" fill="#FF5C52"/>
<path fill-rule="evenodd" clip-rule="evenodd" d="M20.438 17.1719C19.9836 17.4343 19.3989 17.2777 19.1365 16.8232L15.1142 9.85634C14.8518 9.40186 15.0084 8.81715 15.4629 8.55479L17.5769 7.33424C18.0313 7.07185 18.6162 7.22858 18.8785 7.683L22.9008 14.6498C23.1632 15.1042 23.0065 15.6889 22.5522 15.9513L20.4381 17.1719L20.438 17.1719Z" fill="#FF5C52"/>
<path fill-rule="evenodd" clip-rule="evenodd" d="M31.4267 36.2043C30.9723 36.4667 30.3876 36.3101 30.1252 35.8556L26.1029 28.8887C25.8405 28.4343 25.9971 27.8495 26.4515 27.5872L28.5656 26.3667C29.02 26.1043 29.6048 26.2611 29.8672 26.7154L33.8895 33.6823C34.1518 34.1367 33.9952 34.7214 33.5408 34.9837L31.4268 36.2043L31.4267 36.2043Z" fill="#FF5C52"/>
<path d="M22.5003 0H22.5006V0.00524031C28.7161 0.00533559 34.341 2.52232 38.4092 6.59103C42.4777 10.6595 44.9946 16.2841 44.9948 22.4996H45V22.5006H44.9948C44.9947 28.7161 42.4777 34.341 38.409 38.4092C34.3404 42.4777 28.7159 44.9946 22.5004 44.9948V45H22.4994V44.9948C16.2839 44.9947 10.659 42.4777 6.5908 38.409C2.52232 34.3404 0.00539473 28.7159 0.00524031 22.5004H0V22.4994H0.00524031C0.00533559 16.2839 2.52232 10.659 6.59103 6.5908C10.6595 2.52232 16.2841 0.00539473 22.4996 0.00524031V0H22.5003V0ZM22.5006 2.6837V2.68894H22.4996V2.6837C17.0337 2.68384 12.0807 4.90375 8.49274 8.49198C4.9042 12.0804 2.68423 17.0338 2.68423 22.4996H2.68947V22.5007H2.68423C2.68437 27.9666 4.90428 32.9195 8.49251 36.5075C12.081 40.096 17.0344 42.316 22.5001 42.316V42.3108H22.5012V42.316C27.9671 42.3159 32.92 40.096 36.508 36.5077C40.0966 32.9193 42.3165 27.9659 42.3165 22.5001H42.3113V22.4991H42.3165C42.3164 17.0331 40.0965 12.0802 36.5083 8.49221C32.9198 4.90367 27.9664 2.6837 22.5006 2.6837Z" fill="#FF5C52"/>
</svg>
